<svg width="60" height="25" viewBox="0 0 60 25" fill="none" xmlns="http://www.w3.org/2000/svg">
<g clip-path="url(#clip0_1_580)">
<path d="M14.2421 0.96154C11.8989 0.96154 9.65177 1.89235 7.99492 3.5492L2.58766 8.95646C0.930808 10.6133 0 12.8605 0 15.2036C0 20.083 3.95549 24.0385 8.83485 24.0385C11.178 24.0385 13.4252 23.1076 15.082 21.4508L18.8222 17.7105C18.8223 17.7106 18.8222 17.7105 18.8222 17.7105L29.72 6.81277C30.5113 6.02147 31.5845 5.57692 32.7036 5.57692C34.5772 5.57692 36.1655 6.79801 36.7162 8.48775L40.1555 5.04843C38.5865 2.59103 35.8354 0.96154 32.7036 0.96154C30.3605 0.96154 28.1133 1.89235 26.4565 3.5492L11.8185 18.1872C11.0272 18.9785 9.95392 19.4231 8.83485 19.4231C6.50449 19.4231 4.61538 17.534 4.61538 15.2036C4.61538 14.0845 5.05993 13.0113 5.85123 12.22L11.2585 6.81277C12.0498 6.02147 13.123 5.57692 14.2421 5.57692C16.1157 5.57692 17.704 6.79806 18.2547 8.48786L21.6941 5.04852C20.1251 2.59108 17.3739 0.96154 14.2421 0.96154Z" fill="white"/>
<path d="M30.28 18.1872C29.4887 18.9785 28.4154 19.4231 27.2964 19.4231C25.4231 19.4231 23.8348 18.2023 23.284 16.5128L19.8448 19.9521C21.4138 22.4092 24.1648 24.0385 27.2964 24.0385C29.6395 24.0385 31.8867 23.1076 33.5435 21.4508L48.1815 6.81277C48.9728 6.02147 50.0461 5.57692 51.1651 5.57692C53.4955 5.57692 55.3846 7.46603 55.3846 9.79639C55.3846 10.9155 54.9401 11.9887 54.1488 12.78L48.7415 18.1872C47.9502 18.9785 46.877 19.4231 45.7579 19.4231C43.8844 19.4231 42.2961 18.2021 41.7454 16.5125L38.3061 19.9518C39.8751 22.4091 42.6262 24.0385 45.7579 24.0385C48.1011 24.0385 50.3482 23.1076 52.0051 21.4508L57.4123 16.0435C59.0691 14.3867 60 12.1395 60 9.79639C60 4.91703 56.0445 0.96154 51.1651 0.96154C48.822 0.96154 46.5748 1.89235 44.918 3.5492L30.28 18.1872Z" fill="white"/>
</g>
<defs>
<clipPath id="clip0_1_580">
<rect width="60" height="23.0769" fill="white" transform="translate(0 0.96154)"/>
</clipPath>
</defs>
</svg>
